<svg width="288" height="288" viewBox="0 0 288 288" fill="none" xmlns="http://www.w3.org/2000/svg">
<path fill-rule="evenodd" clip-rule="evenodd" d="M144.493 27.87L125.661 60.9569C123.879 64.0899 119.889 65.1818 116.761 63.3969L83.7311 44.5321C72.4715 38.0951 58.1316 42.0257 51.7056 53.3141C45.2797 64.5931 49.2035 78.9577 60.4726 85.3947L99.1704 107.497L134.295 127.558C137.423 129.343 141.413 128.251 143.195 125.118L163.221 89.9329L185.286 51.1685C191.712 39.8895 187.788 25.5249 176.519 19.0879C165.25 12.6604 150.91 16.591 144.493 27.87Z" fill="url(#paint0_linear_4_2)"/>
<path fill-rule="evenodd" clip-rule="evenodd" d="M243.517 84.435L224.684 117.522C222.903 120.655 223.993 124.652 227.12 126.437L260.15 145.302C271.41 151.739 275.334 166.094 268.917 177.382C262.491 188.661 248.161 192.592 236.892 186.164L198.194 164.062L163.069 144.001C159.942 142.216 158.852 138.219 160.634 135.086L180.66 99.9009L202.724 61.1365C209.15 49.8575 223.481 45.927 234.75 52.3545C246.019 58.7915 249.943 73.156 243.517 84.435Z" fill="url(#paint1_linear_4_2)"/>
<path fill-rule="evenodd" clip-rule="evenodd" d="M143.516 260.124L162.349 227.037C164.131 223.904 168.121 222.812 171.248 224.597L204.279 243.462C215.538 249.899 229.878 245.968 236.304 234.68C242.73 223.401 238.806 209.036 227.537 202.599L188.839 180.497L153.715 160.436C150.587 158.651 146.597 159.743 144.815 162.876L124.788 198.061L102.724 236.825C96.2982 248.104 100.222 262.469 111.491 268.906C122.76 275.343 137.091 271.412 143.516 260.124Z" fill="url(#paint2_linear_4_2)"/>
<path fill-rule="evenodd" clip-rule="evenodd" d="M44.4831 203.558L63.3155 170.471C65.0973 167.338 64.0073 163.341 60.8797 161.556L27.8496 142.701C16.59 136.264 12.6662 121.909 19.0826 110.621C25.5086 99.3416 39.839 95.4111 51.1081 101.839L89.8059 123.941L124.931 144.002C128.058 145.787 129.148 149.784 127.366 152.917L107.34 188.102L85.2755 226.866C78.8495 238.145 64.5191 242.076 53.25 235.648C41.9904 229.202 38.0666 214.847 44.4831 203.558Z" fill="url(#paint3_linear_4_2)"/>
<defs>
<linearGradient id="paint0_linear_4_2" x1="110.727" y1="25.7486" x2="178.27" y2="255.367" gradientUnits="userSpaceOnUse">
<stop stop-color="#8E2791"/>
<stop offset="1" stop-color="#E143A6"/>
</linearGradient>
<linearGradient id="paint1_linear_4_2" x1="186.327" y1="61.8205" x2="240.169" y2="195.737" gradientUnits="userSpaceOnUse">
<stop stop-color="#17BB2C"/>
<stop offset="1" stop-color="#A4F86A"/>
</linearGradient>
<linearGradient id="paint2_linear_4_2" x1="108.17" y1="26.5003" x2="175.713" y2="256.118" gradientUnits="userSpaceOnUse">
<stop stop-color="#8E2791"/>
<stop offset="1" stop-color="#E143A6"/>
</linearGradient>
<linearGradient id="paint3_linear_4_2" x1="44.2522" y1="45.3026" x2="111.796" y2="274.92" gradientUnits="userSpaceOnUse">
<stop stop-color="#8E2791"/>
<stop offset="1" stop-color="#E143A6"/>
</linearGradient>
</defs>
</svg>
